<svg class="icon" style="width: 1em;height: 1em;vertical-align: middle;fill: currentColor;overflow: hidden;" viewBox="0 0 1024 1024" version="1.1" xmlns="http://www.w3.org/2000/svg" p-id="1755"><path d="M749.588177 225.481773H958.423645a27.239409 27.239409 0 0 1 27.239409 27.239409 27.239409 27.239409 0 0 1-27.239409 27.239409h-50.443349a27.239409 27.239409 0 1 0 0 53.974384 27.239409 27.239409 0 0 1 0 54.478818h-50.44335a27.239409 27.239409 0 1 0 0 53.974384h2.522167a27.239409 27.239409 0 1 1 0 54.478818H857.536946a27.239409 27.239409 0 0 0 0 54.478818h109.462069a27.239409 27.239409 0 1 1 0 53.974384h-85.753695a27.239409 27.239409 0 0 0 0 54.478818h2.522168a27.239409 27.239409 0 0 1 27.239409 27.239409 27.743842 27.743842 0 0 1-27.239409 27.239409H410.104433V225.481773z" fill="#FFCE2E" p-id="1756"></path><path d="M146.285714 759.172414h263.818719V368.236453H332.421675a214.384236 214.384236 0 0 0-187.144828 113.497537 262.809852 262.809852 0 0 0-45.903448 148.303448v78.691626a50.44335 50.44335 0 0 0 46.912315 50.44335z" fill="#3FC39D" p-id="1757"></path><path d="M129.134975 633.064039v-14.628571a220.437438 220.437438 0 0 1 38.336946-121.064039c41.86798-60.53202 80.204926-95.842365 153.852217-95.842365h50.44335v209.844335H287.527094a100.8867 100.8867 0 0 0-63.054188 21.69064h-3.531034z" fill="#4A4847" p-id="1758"></path><path d="M180.082759 504.433498c39.850246-57.000985 74.656158-90.79803 143.259113-90.79803h34.805911v181.091626H288.031527a115.515271 115.515271 0 0 0-71.125123 24.212807H143.763547A204.295567 204.295567 0 0 1 180.082759 504.433498z" fill="#D4D6D8" p-id="1759"></path><path d="M887.298522 759.172414H410.104433v-45.399015h477.194089z" fill="#FF4C40" p-id="1760"></path><path d="M626.00197 759.172414a95.842365 95.842365 0 1 0 95.842365-95.337931 95.842365 95.842365 0 0 0-95.842365 95.337931z" fill="#4A4847" p-id="1761"></path><path d="M669.887685 759.172414a50.44335 50.44335 0 1 0 50.443349-50.44335 50.44335 50.44335 0 0 0-50.443349 50.44335z" fill="#FFFFFF" p-id="1762"></path><path d="M192.189163 759.172414a95.842365 95.842365 0 1 0 95.842364-95.337931 95.842365 95.842365 0 0 0-95.842364 95.337931z" fill="#4A4847" p-id="1763"></path><path d="M236.074877 759.172414a50.44335 50.44335 0 1 0 50.44335-50.44335 50.44335 50.44335 0 0 0-50.44335 50.44335z" fill="#FFFFFF" p-id="1764"></path><path d="M707.215764 577.576355m-76.673892 0l-69.611823 0q-76.673892 0-76.673891-76.673892l0-82.727094q0-76.673892 76.673891-76.673891l69.611823 0q76.673892 0 76.673892 76.673891l0 82.727094q0 76.673892-76.673892 76.673892Z" fill="#FF4C40" p-id="1765"></path><path d="M263.314286 407.582266h19.168473v203.791133h-19.168473z" fill="#4A4847" p-id="1766"></path></svg>